<?xml version="1.0" standalone="no"?>
<!DOCTYPE svg PUBLIC "-//W3C//DTD SVG 20010904//EN"
 "http://www.w3.org/TR/2001/REC-SVG-20010904/DTD/svg10.dtd">
<svg version="1.0" xmlns="http://www.w3.org/2000/svg"
 width="500.000000pt" height="500.000000pt" viewBox="0 0 500.000000 500.000000"
 preserveAspectRatio="xMidYMid meet">
<metadata>
Created by potrace 1.11, written by Peter Selinger 2001-2013
</metadata>
<g transform="translate(0.000000,500.000000) scale(0.100000,-0.100000)"
fill="#000000" stroke="none">
<path d="M0 2500 l0 -2500 2500 0 2500 0 0 2500 0 2500 -2500 0 -2500 0 0
-2500z m1980 1405 l0 -426 123 3 122 3 3 423 2 422 153 0 154 0 223 -412 c230
-427 237 -438 251 -438 5 0 9 188 9 425 l0 425 155 0 155 0 0 -425 0 -425 75
0 75 0 0 -605 0 -605 125 0 125 0 0 -715 0 -715 -157 0 -158 1 -182 337 -182
337 -60 3 -61 3 0 -341 0 -340 -155 0 -155 0 0 340 0 340 -130 0 -130 0 0 -50
0 -50 -245 0 -245 0 0 -150 0 -150 255 0 255 0 0 -140 0 -140 -410 0 -410 0 0
340 c0 333 0 340 -20 340 -20 0 -20 7 -20 980 l0 980 75 0 75 0 0 425 0 425
155 0 155 0 0 -425z m-1475 -2037 c79 -219 160 -448 180 -509 20 -60 39 -109
40 -107 2 2 26 66 53 143 27 77 109 305 182 508 l133 367 167 0 168 0 -98
-247 c-54 -137 -181 -457 -283 -713 l-185 -465 -134 -3 -134 -3 -282 710
c-155 390 -282 712 -282 715 0 4 75 5 166 4 l166 -3 143 -397z m4465 262 l0
-140 -200 0 -200 0 0 -575 0 -575 -155 0 -155 0 0 575 0 575 -200 0 -200 0 0
140 0 140 555 0 555 0 0 -140z"/>
<path d="M2540 3633 l0 -153 80 0 c44 0 80 2 80 5 0 3 -36 71 -80 152 l-80
148 0 -152z"/>
<path d="M1580 2845 l0 -575 400 0 400 0 0 -140 0 -140 -255 0 -255 0 0 -145
0 -145 245 0 245 0 0 -60 0 -60 130 0 130 0 0 345 0 345 158 0 157 0 185 -343
185 -342 58 -3 57 -3 0 921 0 920 -45 0 -45 0 0 -260 0 -261 -156 3 -157 3
-139 258 -140 257 -99 0 -99 0 0 -260 0 -260 -155 0 -155 0 0 260 0 260 -125
0 -125 0 0 -260 0 -260 -155 0 -155 0 0 260 0 260 -45 0 -45 0 0 -575z"/>
<path d="M2930 1650 l0 -70 40 0 c22 0 40 3 40 7 0 9 -70 133 -75 133 -3 0 -5
-31 -5 -70z"/>
<path d="M3372 1463 c45 -84 48 -84 48 -10 l0 67 -40 0 -40 0 32 -57z"/>
</g>
</svg>
